<svg width="44" height="44" viewBox="0 0 44 44" fill="none" xmlns="http://www.w3.org/2000/svg">
<circle cx="22" cy="23" r="21" fill="#FDD87F"/>
<path d="M31.2465 27.0264C30.8524 26.6735 30.2469 26.7079 29.8959 27.1011C27.9006 29.3307 25.0234 30.6086 21.9998 30.6086C18.9772 30.6086 16.099 29.3307 14.1037 27.1011C13.7508 26.7079 13.1472 26.6735 12.7531 27.0264C12.359 27.3784 12.3265 27.983 12.6785 28.3771C15.0363 31.0113 18.4339 32.5217 21.9998 32.5217C25.5667 32.5217 28.9642 31.0104 31.3211 28.3771C31.6731 27.983 31.6396 27.3784 31.2465 27.0264Z" fill="black"/>
<path d="M22 0C9.86939 0 0 9.86939 0 22C0 34.1306 9.86939 44 22 44C34.1306 44 44 34.1306 44 22C44 9.86939 34.1306 0 22 0ZM22 42.087C10.9235 42.087 1.91304 33.0765 1.91304 22C1.91304 10.9235 10.9235 1.91304 22 1.91304C33.0765 1.91304 42.087 10.9235 42.087 22C42.087 33.0765 33.0765 42.087 22 42.087Z" fill="black"/>
<path d="M29.6522 15.3044C27.0151 15.3044 24.8696 17.4499 24.8696 20.087C24.8696 20.615 25.2982 21.0436 25.8262 21.0436C26.3542 21.0436 26.7827 20.615 26.7827 20.087C26.7827 18.505 28.0702 17.2175 29.6522 17.2175C31.2343 17.2175 32.5218 18.505 32.5218 20.087C32.5218 20.615 32.9503 21.0436 33.4783 21.0436C34.0063 21.0436 34.4348 20.615 34.4348 20.087C34.4348 17.4499 32.2894 15.3044 29.6522 15.3044Z" fill="black"/>
<path d="M17.2174 20.087C17.2174 20.615 17.6459 21.0436 18.1739 21.0436C18.7019 21.0436 19.1304 20.615 19.1304 20.087C19.1304 17.4499 16.9849 15.3044 14.3478 15.3044C11.7107 15.3044 9.56519 17.4499 9.56519 20.087C9.56519 20.615 9.99371 21.0436 10.5217 21.0436C11.0497 21.0436 11.4782 20.615 11.4782 20.087C11.4782 18.505 12.7657 17.2175 14.3478 17.2175C15.9299 17.2175 17.2174 18.505 17.2174 20.087Z" fill="black"/>
</svg>
