<svg width="44" height="44" viewBox="0 0 44 44" fill="none" xmlns="http://www.w3.org/2000/svg">
<circle cx="22" cy="22" r="21" fill="#FDD87F"/>
<path d="M22 0C9.86939 0 0 9.86939 0 22C0 34.1306 9.86939 44 22 44C34.1316 44 44 34.1306 44 22C44 9.86939 34.1316 0 22 0ZM22 42.087C10.9235 42.087 1.91304 33.0765 1.91304 22C1.91304 10.9235 10.9235 1.91304 22 1.91304C33.0756 1.91304 42.087 10.9235 42.087 22C42.087 33.0765 33.0756 42.087 22 42.087Z" fill="black"/>
<path d="M17.2174 18.1739C17.2174 16.5918 15.9299 15.3043 14.3478 15.3043C12.7657 15.3043 11.4783 16.5918 11.4783 18.1739C11.4783 19.756 12.7657 21.0435 14.3478 21.0435C15.9299 21.0435 17.2174 19.756 17.2174 18.1739ZM13.3913 18.1739C13.3913 17.6468 13.8208 17.2174 14.3478 17.2174C14.8749 17.2174 15.3044 17.6468 15.3044 18.1739C15.3044 18.7009 14.8749 19.1304 14.3478 19.1304C13.8208 19.1304 13.3913 18.7009 13.3913 18.1739Z" fill="black"/>
<path d="M29.6523 15.3043C28.0702 15.3043 26.7827 16.5918 26.7827 18.1739C26.7827 19.756 28.0702 21.0435 29.6523 21.0435C31.2344 21.0435 32.5218 19.756 32.5218 18.1739C32.5218 16.5918 31.2344 15.3043 29.6523 15.3043ZM29.6523 19.1304C29.1243 19.1304 28.6958 18.7009 28.6958 18.1739C28.6958 17.6468 29.1243 17.2174 29.6523 17.2174C30.1803 17.2174 30.6088 17.6468 30.6088 18.1739C30.6088 18.7009 30.1803 19.1304 29.6523 19.1304Z" fill="black"/>
<path d="M22 26.7826C18.434 26.7826 15.0365 28.2929 12.6786 30.9272C12.3266 31.3213 12.3601 31.9258 12.7533 32.2778C13.1473 32.6307 13.7519 32.5963 14.1039 32.2032C16.0992 29.9735 18.9773 28.6956 22 28.6956C25.0226 28.6956 27.9007 29.9735 29.896 32.2032C30.0845 32.4146 30.3466 32.5217 30.6087 32.5217C30.8353 32.5217 31.0649 32.4414 31.2466 32.2778C31.6398 31.9258 31.6733 31.3213 31.3213 30.9272C28.9634 28.2939 25.5668 26.7826 22 26.7826Z" fill="black"/>
</svg>
