<svg width="44" height="44" viewBox="0 0 44 44" fill="none" xmlns="http://www.w3.org/2000/svg">
<circle cx="22" cy="22" r="21" fill="#FDD87F"/>
<path d="M22 0C9.86939 0 0 9.86939 0 22C0 34.1306 9.86939 44 22 44C34.1306 44 44 34.1306 44 22C44 9.86939 34.1306 0 22 0ZM22 42.087C10.9235 42.087 1.91304 33.0765 1.91304 22C1.91304 10.9235 10.9235 1.91304 22 1.91304C33.0765 1.91304 42.087 10.9235 42.087 22C42.087 33.0765 33.0765 42.087 22 42.087Z" fill="black"/>
<path d="M14.3478 21.0435C15.9299 21.0435 17.2174 19.756 17.2174 18.1739C17.2174 16.5918 15.9299 15.3043 14.3478 15.3043C12.7657 15.3043 11.4783 16.5918 11.4783 18.1739C11.4783 19.756 12.7657 21.0435 14.3478 21.0435ZM14.3478 17.2174C14.8749 17.2174 15.3044 17.6468 15.3044 18.1739C15.3044 18.7009 14.8749 19.1304 14.3478 19.1304C13.8208 19.1304 13.3913 18.7009 13.3913 18.1739C13.3913 17.6468 13.8208 17.2174 14.3478 17.2174Z" fill="black"/>
<path d="M29.6523 15.3043C28.0702 15.3043 26.7827 16.5918 26.7827 18.1739C26.7827 19.756 28.0702 21.0435 29.6523 21.0435C31.2344 21.0435 32.5218 19.756 32.5218 18.1739C32.5218 16.5918 31.2344 15.3043 29.6523 15.3043ZM29.6523 19.1304C29.1252 19.1304 28.6958 18.7009 28.6958 18.1739C28.6958 17.6468 29.1252 17.2174 29.6523 17.2174C30.1793 17.2174 30.6088 17.6468 30.6088 18.1739C30.6088 18.7009 30.1793 19.1304 29.6523 19.1304Z" fill="black"/>
<path d="M31.5652 26.7826H12.4348C11.9068 26.7826 11.4783 27.2111 11.4783 27.7391C11.4783 28.2671 11.9068 28.6956 12.4348 28.6956H31.5652C32.0932 28.6956 32.5218 28.2671 32.5218 27.7391C32.5218 27.2111 32.0932 26.7826 31.5652 26.7826Z" fill="black"/>
</svg>
