<svg width="44" height="44" viewBox="0 0 44 44" fill="none" xmlns="http://www.w3.org/2000/svg">
<circle cx="22" cy="22" r="21" fill="#F9545B"/>
<path d="M21.9999 26.7826C18.434 26.7826 15.0365 28.2929 12.6786 30.9272C12.3266 31.3213 12.3601 31.9258 12.7533 32.2778C13.1473 32.6308 13.7509 32.5963 14.1039 32.2032C16.0992 29.9735 18.9773 28.6956 21.9999 28.6956C25.0235 28.6956 27.9007 29.9735 29.896 32.2032C30.0845 32.4146 30.3466 32.5217 30.6086 32.5217C30.8353 32.5217 31.0639 32.4414 31.2466 32.2778C31.6407 31.9258 31.6732 31.3213 31.3212 30.9272C28.9644 28.2939 25.5668 26.7826 21.9999 26.7826Z" fill="black"/>
<path d="M22 0C9.86939 0 0 9.86939 0 22C0 34.1306 9.86939 44 22 44C34.1306 44 44 34.1306 44 22C44 9.86939 34.1306 0 22 0ZM22 42.087C10.9235 42.087 1.91304 33.0765 1.91304 22C1.91304 10.9235 10.9235 1.91304 22 1.91304C33.0765 1.91304 42.087 10.9235 42.087 22C42.087 33.0765 33.0765 42.087 22 42.087Z" fill="black"/>
<path d="M19.1305 18.174C19.1305 17.8115 18.9258 17.4805 18.6015 17.3179L10.9493 13.4918C10.4749 13.2556 9.90196 13.4478 9.6657 13.9194C9.42943 14.3919 9.62074 14.9668 10.0933 15.203L16.0352 18.174L10.0942 21.144C9.6217 21.3802 9.43039 21.9551 9.66665 22.4276C9.83404 22.7634 10.1717 22.9566 10.5227 22.9566C10.6662 22.9566 10.8126 22.9241 10.9493 22.8562L18.6015 19.0301C18.9258 18.8675 19.1305 18.5365 19.1305 18.174Z" fill="black"/>
<path d="M33.9069 21.1439L27.9649 18.1739L33.9059 15.2039C34.3784 14.9667 34.5707 14.3928 34.3344 13.9203C34.0982 13.4478 33.5243 13.2565 33.0508 13.4927L25.3986 17.3188C25.0743 17.4805 24.8696 17.8114 24.8696 18.1739C24.8696 18.5365 25.0743 18.8674 25.3986 19.03L33.0508 22.8561C33.1876 22.924 33.3339 22.9566 33.4774 22.9566C33.8284 22.9566 34.1661 22.7633 34.3344 22.4276C34.5707 21.9551 34.3794 21.3802 33.9069 21.1439Z" fill="black"/>
</svg>
