<svg width="187" height="54" viewBox="0 0 187 54" fill="none" xmlns="http://www.w3.org/2000/svg">
<path d="M49.32 26.12C49.256 27.656 48.648 28.904 47.496 29.864C46.344 30.824 45 31.304 43.464 31.304H11.784C12.552 35.08 14.312 38.056 17.064 40.232C19.816 42.344 22.92 43.4 26.376 43.4C29 43.4 31.048 43.176 32.52 42.728C33.992 42.216 35.144 41.704 35.976 41.192C36.872 40.616 37.48 40.232 37.8 40.04C38.952 39.464 40.04 39.176 41.064 39.176C42.408 39.176 43.56 39.656 44.52 40.616C45.48 41.576 45.96 42.696 45.96 43.976C45.96 45.704 45.064 47.272 43.272 48.68C41.48 50.152 39.08 51.4 36.072 52.424C33.064 53.448 30.024 53.96 26.952 53.96C21.576 53.96 16.872 52.84 12.84 50.6C8.872 48.36 5.8 45.288 3.624 41.384C1.448 37.416 0.36 32.968 0.36 28.04C0.36 22.536 1.512 17.704 3.816 13.544C6.12 9.384 9.16 6.216 12.936 4.04C16.712 1.8 20.744 0.679998 25.032 0.679998C29.256 0.679998 33.224 1.832 36.936 4.136C40.712 6.44 43.72 9.544 45.96 13.448C48.2 17.352 49.32 21.576 49.32 26.12ZM25.032 11.24C17.608 11.24 13.224 14.728 11.88 21.704H37.032V21.032C36.776 18.344 35.464 16.04 33.096 14.12C30.728 12.2 28.04 11.24 25.032 11.24ZM175.629 48.4531C175.629 46.9531 176.066 45.7031 176.941 44.7031C177.848 43.7031 179.191 43.2031 180.973 43.2031C182.754 43.2031 184.098 43.7031 185.004 44.7031C185.941 45.7031 186.41 46.9531 186.41 48.4531C186.41 49.8906 185.941 51.0938 185.004 52.0625C184.098 53.0312 182.754 53.5156 180.973 53.5156C179.191 53.5156 177.848 53.0312 176.941 52.0625C176.066 51.0938 175.629 49.8906 175.629 48.4531Z" fill="#FFC839"/>
<path d="M76.8795 33.812C81.0795 33.812 83.1795 36.428 83.1795 41.66V51.272C83.1795 51.776 83.0235 52.196 82.7115 52.532C82.3995 52.844 81.9915 53 81.4875 53C80.9835 53 80.5635 52.832 80.2275 52.496C79.9155 52.16 79.7595 51.752 79.7595 51.272V41.696C79.7595 38.552 78.4395 36.98 75.7995 36.98C74.8635 36.98 74.0115 37.196 73.2435 37.628C72.4995 38.036 71.9115 38.6 71.4795 39.32C71.0715 40.04 70.8675 40.832 70.8675 41.696V51.272C70.8675 51.752 70.6995 52.16 70.3635 52.496C70.0515 52.832 69.6435 53 69.1395 53C68.6355 53 68.2275 52.844 67.9155 52.532C67.6035 52.196 67.4475 51.776 67.4475 51.272V41.66C67.4475 40.244 67.1475 39.116 66.5475 38.276C65.9475 37.412 64.9515 36.98 63.5595 36.98C62.1435 36.98 60.9675 37.436 60.0315 38.348C59.1195 39.236 58.6635 40.34 58.6635 41.66V51.272C58.6635 51.752 58.4955 52.16 58.1595 52.496C57.8475 52.832 57.4395 53 56.9355 53C56.4315 53 56.0235 52.844 55.7115 52.532C55.3995 52.196 55.2435 51.776 55.2435 51.272V35.864C55.2435 35.384 55.3995 34.976 55.7115 34.64C56.0475 34.304 56.4555 34.136 56.9355 34.136C57.4395 34.136 57.8475 34.304 58.1595 34.64C58.4955 34.976 58.6635 35.384 58.6635 35.864V37.124C59.2875 36.188 60.1155 35.408 61.1475 34.784C62.2035 34.136 63.3435 33.812 64.5675 33.812C67.5435 33.812 69.4755 35.132 70.3635 37.772C70.8915 36.764 71.7675 35.852 72.9915 35.036C74.2155 34.22 75.5115 33.812 76.8795 33.812ZM104.85 42.848C104.826 43.28 104.646 43.652 104.31 43.964C103.974 44.252 103.578 44.396 103.122 44.396H90.4504C90.6184 46.148 91.2784 47.552 92.4304 48.608C93.6064 49.664 95.0344 50.192 96.7144 50.192C97.8664 50.192 98.8024 50.024 99.5224 49.688C100.242 49.352 100.878 48.92 101.43 48.392C101.79 48.176 102.138 48.068 102.474 48.068C102.882 48.068 103.218 48.212 103.482 48.5C103.77 48.788 103.914 49.124 103.914 49.508C103.914 50.012 103.674 50.468 103.194 50.876C102.498 51.572 101.574 52.16 100.422 52.64C99.2704 53.12 98.0944 53.36 96.8944 53.36C94.9504 53.36 93.2344 52.952 91.7464 52.136C90.2824 51.32 89.1424 50.18 88.3264 48.716C87.5344 47.252 87.1384 45.596 87.1384 43.748C87.1384 41.732 87.5464 39.968 88.3624 38.456C89.2024 36.92 90.2944 35.744 91.6384 34.928C93.0064 34.112 94.4704 33.704 96.0304 33.704C97.5664 33.704 99.0064 34.1 100.35 34.892C101.694 35.684 102.774 36.776 103.59 38.168C104.406 39.56 104.826 41.12 104.85 42.848ZM96.0304 36.872C94.6864 36.872 93.5224 37.256 92.5384 38.024C91.5544 38.768 90.9064 39.932 90.5944 41.516H101.214V41.228C101.094 39.956 100.518 38.912 99.4864 38.096C98.4784 37.28 97.3264 36.872 96.0304 36.872ZM118.434 33.704C122.754 33.704 124.914 36.296 124.914 41.48V51.272C124.914 51.752 124.746 52.16 124.41 52.496C124.098 52.832 123.69 53 123.186 53C122.706 53 122.298 52.832 121.962 52.496C121.65 52.16 121.494 51.752 121.494 51.272V41.516C121.494 40.1 121.17 38.972 120.522 38.132C119.874 37.292 118.818 36.872 117.354 36.872C116.394 36.872 115.518 37.088 114.726 37.52C113.958 37.928 113.346 38.492 112.89 39.212C112.458 39.908 112.242 40.676 112.242 41.516V51.272C112.242 51.752 112.074 52.16 111.738 52.496C111.426 52.832 111.018 53 110.514 53C110.01 53 109.602 52.844 109.29 52.532C108.978 52.196 108.822 51.776 108.822 51.272V35.864C108.822 35.384 108.978 34.976 109.29 34.64C109.626 34.304 110.034 34.136 110.514 34.136C111.018 34.136 111.426 34.304 111.738 34.64C112.074 34.976 112.242 35.384 112.242 35.864V37.124C112.866 36.164 113.73 35.36 114.834 34.712C115.962 34.04 117.162 33.704 118.434 33.704ZM144.061 34.136C144.565 34.136 144.973 34.304 145.285 34.64C145.621 34.976 145.789 35.384 145.789 35.864V45.44C145.789 47.936 145.093 49.88 143.701 51.272C142.333 52.64 140.389 53.324 137.869 53.324C135.373 53.324 133.441 52.64 132.073 51.272C130.705 49.88 130.021 47.936 130.021 45.44V35.864C130.021 35.384 130.177 34.976 130.489 34.64C130.825 34.304 131.233 34.136 131.713 34.136C132.217 34.136 132.625 34.304 132.937 34.64C133.273 34.976 133.441 35.384 133.441 35.864V45.44C133.441 48.584 134.917 50.156 137.869 50.156C139.333 50.156 140.449 49.76 141.217 48.968C141.985 48.176 142.369 47 142.369 45.44V35.864C142.369 35.384 142.525 34.976 142.837 34.64C143.173 34.304 143.581 34.136 144.061 34.136ZM167.464 42.848C167.44 43.28 167.26 43.652 166.924 43.964C166.588 44.252 166.192 44.396 165.736 44.396H153.064C153.232 46.148 153.892 47.552 155.044 48.608C156.22 49.664 157.648 50.192 159.328 50.192C160.48 50.192 161.416 50.024 162.136 49.688C162.856 49.352 163.492 48.92 164.044 48.392C164.404 48.176 164.752 48.068 165.088 48.068C165.496 48.068 165.832 48.212 166.096 48.5C166.384 48.788 166.528 49.124 166.528 49.508C166.528 50.012 166.288 50.468 165.808 50.876C165.112 51.572 164.188 52.16 163.036 52.64C161.884 53.12 160.708 53.36 159.508 53.36C157.564 53.36 155.848 52.952 154.36 52.136C152.896 51.32 151.756 50.18 150.94 48.716C150.148 47.252 149.752 45.596 149.752 43.748C149.752 41.732 150.16 39.968 150.976 38.456C151.816 36.92 152.908 35.744 154.252 34.928C155.62 34.112 157.084 33.704 158.644 33.704C160.18 33.704 161.62 34.1 162.964 34.892C164.308 35.684 165.388 36.776 166.204 38.168C167.02 39.56 167.44 41.12 167.464 42.848ZM158.644 36.872C157.3 36.872 156.136 37.256 155.152 38.024C154.168 38.768 153.52 39.932 153.208 41.516H163.828V41.228C163.708 39.956 163.132 38.912 162.1 38.096C161.092 37.28 159.94 36.872 158.644 36.872Z" fill="black"/>
</svg>
