<svg width="74" height="74" viewBox="0 0 74 74" fill="none" xmlns="http://www.w3.org/2000/svg">
<path d="M52.4019 24.9405L51.6101 22.3344C50.6043 19.3741 47.3891 17.7898 44.4288 18.7955C42.7635 19.3613 41.4557 20.6691 40.8899 22.3344L40.0981 24.9405C39.4318 27.1383 39.292 29.462 39.6899 31.7238C40.0528 33.6281 41.2618 35.2641 42.9755 36.17L42.0887 55.9933C41.97 57.0998 42.3289 58.2044 43.0754 59.0298C44.6807 60.7858 47.4058 60.9079 49.1618 59.3025C49.2567 59.2157 49.3477 59.1248 49.4345 59.0298C50.1643 58.2278 50.5226 57.1556 50.4211 56.076L49.5294 36.1675C51.2408 35.2612 52.4478 33.6262 52.8101 31.7238C53.208 29.462 53.0682 27.1383 52.4019 24.9405ZM50.3804 31.2946C50.1134 32.6627 49.1385 33.7852 47.8213 34.241C47.3213 34.429 46.9993 34.9174 47.0233 35.4509L47.9606 56.2708C48.0038 56.6792 47.8691 57.0864 47.5906 57.3882C46.848 58.1235 45.652 58.1235 44.9094 57.3882C44.6171 57.062 44.4843 56.623 44.5468 56.1894L45.4767 35.4509C45.5008 34.9174 45.1787 34.429 44.6787 34.241C43.3615 33.7852 42.3866 32.6627 42.1196 31.2946C41.7897 29.4169 41.9059 27.4878 42.4587 25.6632L43.2505 23.0559C43.8632 21.3994 45.7027 20.5532 47.3594 21.1659C48.2352 21.4898 48.9256 22.1803 49.2495 23.0559L50.0413 25.6632C50.5935 27.4879 50.7097 29.4169 50.3804 31.2946Z" fill="black"/>
<path d="M33.2999 18.5C32.6188 18.5 32.0666 19.0522 32.0666 19.7333V30.3227L28.7279 33.6614C28.4809 33.9074 28.3496 34.2467 28.3666 34.595L29.4457 56.1783C29.4715 56.6438 29.3025 57.099 28.9795 57.4351C28.3044 58.1162 27.2049 58.1211 26.5236 57.4459C26.5199 57.4423 26.5164 57.4386 26.5129 57.4351C26.1897 57.099 26.0209 56.6438 26.0467 56.1783L27.1332 34.595C27.1505 34.2469 27.0196 33.9077 26.7731 33.6614L23.4332 30.3227V19.7333C23.4332 19.0522 22.881 18.5 22.1999 18.5C21.5188 18.5 20.9666 19.0522 20.9666 19.7333V30.8333C20.9666 31.1605 21.0967 31.4741 21.3279 31.7053L24.6407 35.0193L23.5886 56.0587C23.4767 58.3569 25.249 60.3108 27.5472 60.4227C29.8453 60.5346 31.7992 58.7623 31.9112 56.4642C31.9178 56.3291 31.9178 56.1939 31.9112 56.0589L30.8591 35.0194L34.1719 31.7055C34.4031 31.4742 34.5332 31.1606 34.5332 30.8335V19.7335C34.5332 19.0522 33.981 18.5 33.2999 18.5Z" fill="black"/>
<path d="M25.9001 18.5C25.219 18.5 24.6667 19.0522 24.6667 19.7333V29.6C24.6667 30.2811 25.219 30.8333 25.9001 30.8333C26.5812 30.8333 27.1334 30.2811 27.1334 29.6V19.7333C27.1334 19.0522 26.5812 18.5 25.9001 18.5Z" fill="black"/>
<path d="M29.6 18.5C28.9189 18.5 28.3667 19.0522 28.3667 19.7333V29.6C28.3667 30.2811 28.9189 30.8333 29.6 30.8333C30.2811 30.8333 30.8334 30.2811 30.8334 29.6V19.7333C30.8334 19.0522 30.2811 18.5 29.6 18.5Z" fill="black"/>
<path d="M37 0C16.5655 0 0 16.5655 0 37C0 57.4345 16.5655 74 37 74C57.4345 74 74 57.4345 74 37C73.9769 16.5751 57.4249 0.023125 37 0ZM37 71.5333C17.9277 71.5333 2.46667 56.0723 2.46667 37C2.46667 17.9277 17.9277 2.46667 37 2.46667C56.0723 2.46667 71.5333 17.9277 71.5333 37C71.5116 56.0632 56.0632 71.5116 37 71.5333Z" fill="black"/>
<path d="M41.0035 60.1515C40.9374 59.4736 40.3341 58.9777 39.6561 59.0438C39.6402 59.0454 39.6244 59.0472 39.6085 59.0494L39.6134 59.0481C37.877 59.2498 36.1229 59.2498 34.3866 59.0481C33.7098 58.9687 33.097 59.453 33.0176 60.1298C32.9382 60.8066 33.4224 61.4194 34.0992 61.4988C36.0249 61.7237 37.9702 61.7237 39.8959 61.4988C40.5737 61.4328 41.0697 60.8295 41.0035 60.1515Z" fill="black"/>
<path d="M55.8699 21.1073C55.4323 20.5854 54.6543 20.5171 54.1325 20.9549C54.1308 20.9563 54.1291 20.9579 54.1272 20.9593C53.6066 21.3983 53.5403 22.1763 53.9792 22.697C61.4155 31.5246 60.8466 44.5777 52.6707 52.725C52.1881 53.2058 52.1867 53.987 52.6676 54.4695C53.1484 54.9521 53.9296 54.9535 54.4121 54.4726C63.4983 45.421 64.1319 30.9167 55.8699 21.1073Z" fill="black"/>
<path d="M28.7363 16.3022C28.7354 16.3022 28.7346 16.302 28.7337 16.302C28.7323 16.302 28.7308 16.3022 28.7292 16.3022H28.7363Z" fill="black"/>
<path d="M42.8176 13.0228C37.9976 11.8676 32.9424 12.1781 28.3 13.9145C27.6624 14.1542 27.34 14.8655 27.5798 15.503C27.7604 15.9835 28.2199 16.3016 28.7331 16.302C28.8806 16.3013 29.0268 16.2743 29.1646 16.222C33.3453 14.6586 37.8975 14.3794 42.2379 15.4204C42.9001 15.5804 43.5665 15.1735 43.7266 14.5114C43.8866 13.8492 43.4797 13.1828 42.8176 13.0228Z" fill="black"/>
<path d="M21.2737 52.6633C17.116 48.5127 14.7858 42.875 14.7999 37C14.7878 32.3063 16.2746 27.7312 19.0438 23.9415C19.4532 23.397 19.3435 22.6238 18.799 22.2145C18.2545 21.8052 17.4814 21.9148 17.0721 22.4593C17.0648 22.469 17.0577 22.4787 17.0508 22.4886C9.92011 32.2918 10.9694 45.8231 19.5261 54.4097C20.0083 54.8923 20.7906 54.8926 21.2731 54.4104C21.7556 53.9281 21.7559 53.1459 21.2737 52.6633Z" fill="black"/>
</svg>
