<svg width="124" height="124" viewBox="0 0 124 124" fill="none" xmlns="http://www.w3.org/2000/svg">
<path d="M77.6432 6C91.2561 6 96 18.7134 96 26.16C96 41.28 83.7439 49.8707 62 69C40.2561 49.8707 28 41.28 28 26.16C28 18.7134 32.7439 6 46.3568 6C54.7139 6 59.346 12.1866 62 17.1107C64.654 12.1866 69.2861 6 77.6432 6Z" fill="#FDD87F"/>
<path d="M97.5581 25.6719C97.5581 17.2447 92.0435 3.875 77.2458 3.875C71.1659 3.875 66.0517 6.74129 62.0001 12.407C57.9486 6.74129 52.834 3.875 46.7544 3.875C31.9565 3.875 26.4421 17.2447 26.4421 25.6719C26.4421 40.2014 37.7818 49.29 53.2734 62.5369C55.5497 64.4832 57.9035 66.496 60.4131 68.6732C60.8684 69.0682 61.4341 69.2656 62.0001 69.2656C62.5661 69.2656 63.1319 69.0682 63.5872 68.6732C66.0967 66.496 68.4505 64.4832 70.7268 62.5369C86.9452 48.6685 97.5581 39.8943 97.5581 25.6719ZM62.0001 63.6411C60.0648 61.9709 58.2191 60.3926 56.4213 58.8552C40.2136 44.9965 31.2859 37.3623 31.2859 25.6719C31.2859 17.7419 36.4738 8.71875 46.7544 8.71875C52.1196 8.71875 56.4114 11.7994 59.8751 18.1365C60.2997 18.9134 61.1147 19.3968 62.0001 19.3968C62.8855 19.3968 63.7005 18.9134 64.1251 18.1365C67.5888 11.7994 71.8806 8.71875 77.2458 8.71875C87.3828 8.71875 92.7143 17.608 92.7143 25.6719C92.7143 37.3623 83.7866 44.9965 67.5789 58.8554C65.7811 60.3926 63.9354 61.9709 62.0001 63.6411Z" fill="black"/>
<path d="M14.7812 58.5988L14.6564 58.671C11.7787 60.335 9.9375 63.4375 9.9375 66.8438C9.9375 69.3642 10.9191 71.7329 12.7025 73.516L12.7025 73.5161L25.1049 85.9209L25.1049 85.9209C25.9528 86.7692 27.328 86.7693 28.1764 85.9211C29.0245 85.0732 29.0247 83.698 28.1766 82.8496L15.7742 70.4446C15.7742 70.4446 15.7742 70.4446 15.7742 70.4446C14.8116 69.4825 14.2812 68.2029 14.2812 66.8438C14.2812 64.6923 15.64 62.7653 17.6649 62.0443L17.6651 62.0443L17.6701 62.0425C17.6733 62.0412 17.6764 62.0401 17.6791 62.0392C17.6813 62.0384 17.6834 62.0377 17.6854 62.0371L14.7812 58.5988ZM14.7812 58.5988V58.4546V37.7812C14.7812 34.9723 12.4964 32.6875 9.6875 32.6875C6.87859 32.6875 4.59375 34.9723 4.59375 37.7812V70.68C4.59375 80.9296 10.29 90.1464 19.4574 94.7315L19.5692 94.5079L19.4574 94.7315L32.4554 101.229C33.191 101.597 33.656 102.349 33.656 103.172V115.281V115.531H33.906H54.7341H54.9841V115.281V86.0855C54.9841 81.0376 51.1981 76.8496 46.1774 76.3436C46.1632 76.3409 46.1449 76.3375 46.1228 76.3333C45.5894 76.2332 42.7955 75.7087 39.3669 74.5899C35.602 73.3612 31.1792 71.4439 28.4154 68.68L28.4153 68.68L22.9763 63.2432C21.5308 61.7974 19.4664 61.4212 17.7175 62.0259M14.7812 58.5988L17.7175 62.0259M17.7175 62.0259H17.7172L17.7018 62.0313C17.6966 62.0331 17.6914 62.035 17.6862 62.0368L17.7175 62.0259ZM29.3125 104.669V104.514L29.1743 104.445L17.5149 98.6165C6.92887 93.3223 0.25 82.5044 0.25 70.68V37.7812C0.25 32.5776 4.48388 28.3438 9.6875 28.3438C14.8911 28.3438 19.125 32.5776 19.125 37.7812V57.1562V57.4062H19.375C21.8954 57.4062 24.2642 58.3879 26.0475 60.171L26.0476 60.171L31.4866 65.6079C33.0117 67.1328 35.6799 68.6216 38.4807 69.7799C41.2852 70.9398 44.2615 71.7843 46.425 72.0013C46.4253 72.0013 46.4256 72.0014 46.4259 72.0014L46.6222 72.0225L46.624 72.0227C53.859 72.7481 59.3281 78.7936 59.3281 86.0855V117.703C59.3281 118.902 58.3555 119.875 57.1562 119.875H31.4844C30.2851 119.875 29.3125 118.902 29.3125 117.703V104.669Z" fill="black" stroke="black" stroke-width="0.5"/>
<path d="M107.091 58.4903L107.211 58.5635C109.91 60.2235 111.644 63.3244 111.644 66.7368C111.644 69.2612 110.72 71.6308 109.044 73.4123L109.044 73.4123L97.3869 85.813L97.3868 85.813C96.5969 86.6536 95.3223 86.6537 94.5318 85.8132C93.7334 84.9642 93.7331 83.5813 94.5316 82.7318L106.189 70.331C107.095 69.3683 107.591 68.0908 107.591 66.7368C107.591 64.5961 106.32 62.6662 104.407 61.9412L104.407 61.9411L104.401 61.939C104.398 61.9378 104.396 61.9368 104.393 61.9359C104.391 61.9349 104.388 61.9341 104.386 61.9333L107.091 58.4903ZM107.091 58.4903V58.3506V37.6842C107.091 34.8909 109.232 32.5921 111.894 32.5921C114.557 32.5921 116.697 34.8909 116.697 37.6842V70.5718C116.697 80.81 111.347 90.0251 102.723 94.6123L102.606 94.3916L102.723 94.6123L90.5061 101.108L90.3887 100.887L90.5061 101.108C89.8216 101.472 89.3803 102.222 89.3803 103.053V115.158V115.408H89.1303H69.5531H69.3031V115.158V85.9721C69.3031 80.9392 72.8542 76.742 77.5918 76.2337C77.6062 76.2307 77.6245 76.2271 77.6467 76.2226C78.1658 76.1188 80.778 75.5959 83.9883 74.4817C87.5254 73.2541 91.6794 71.3387 94.2752 68.578L94.2753 68.5779L99.3876 63.143C100.748 61.6956 102.697 61.3141 104.352 61.9205M107.091 58.4903L104.352 61.9205M104.352 61.9205H104.352L104.37 61.9274C104.375 61.9292 104.38 61.9311 104.385 61.933L104.352 61.9205ZM93.4329 104.549V104.399L93.5656 104.328L104.525 98.5016C114.468 93.2129 120.75 82.4001 120.75 70.5718V37.6842C120.75 32.4677 116.763 28.25 111.894 28.25C107.026 28.25 103.039 32.4677 103.039 37.6842V57.0526V57.3026H102.789C100.429 57.3026 98.2076 58.2799 96.5328 60.0609L96.5328 60.0609L91.4204 65.4959C89.9855 67.0219 87.4753 68.5113 84.8412 69.6699C82.2039 70.8299 79.4035 71.6753 77.366 71.8926C77.3658 71.8926 77.3656 71.8927 77.3654 71.8927L77.1811 71.9138L77.1792 71.914C70.3977 72.637 65.25 78.6696 65.25 85.9721V117.579C65.25 118.793 66.1717 119.75 67.2764 119.75H91.4065C92.5112 119.75 93.4329 118.793 93.4329 117.579V104.549Z" fill="black" stroke="black" stroke-width="0.5"/>
</svg>
