<svg width="44" height="44" viewBox="0 0 44 44" fill="none" xmlns="http://www.w3.org/2000/svg">
<circle cx="22" cy="22" r="21" fill="#FDD87F"/>
<path d="M22 0C9.86843 0 0 9.86939 0 22C0 34.1306 9.86843 44 22 44C34.1316 44 44 34.1306 44 22C44 9.86939 34.1316 0 22 0ZM22 42.087C10.9244 42.087 1.91304 33.0765 1.91304 22C1.91304 10.9235 10.9244 1.91304 22 1.91304C33.0756 1.91304 42.087 10.9235 42.087 22C42.087 33.0765 33.0756 42.087 22 42.087Z" fill="black"/>
<path d="M31.5652 24.8696H12.4348C11.9058 24.8696 11.4783 25.2982 11.4783 25.8262C11.4783 31.6275 16.1987 36.3479 22 36.3479C27.8013 36.3479 32.5217 31.6275 32.5217 25.8262C32.5217 25.2982 32.0942 24.8696 31.5652 24.8696ZM22 34.4348C17.5761 34.4348 13.9222 31.0813 13.4449 26.7827H30.5551C30.0778 31.0813 26.4239 34.4348 22 34.4348Z" fill="black"/>
<g clip-path="url(#clip0)">
<path d="M17.1274 13.5593C16.5579 12.9417 15.7766 12.6016 14.9271 12.6016C14.2922 12.6016 13.7107 12.8023 13.1987 13.1982C12.9404 13.398 12.7064 13.6425 12.5 13.9278C12.2937 13.6425 12.0596 13.398 11.8012 13.1982C11.2893 12.8023 10.7078 12.6016 10.0729 12.6016C9.22338 12.6016 8.44197 12.9417 7.87255 13.5593C7.30993 14.1697 7 15.0035 7 15.9074C7 16.8377 7.34669 17.6892 8.091 18.5874C8.75685 19.3908 9.71383 20.2064 10.822 21.1507C11.2004 21.4733 11.6294 21.8388 12.0748 22.2282C12.1924 22.3313 12.3434 22.388 12.5 22.388C12.6565 22.388 12.8076 22.3313 12.9251 22.2284C13.3705 21.8389 13.7996 21.4732 14.1782 21.1505C15.2863 20.2063 16.2432 19.3908 16.9091 18.5873C17.6534 17.6892 18 16.8377 18 15.9073C18 15.0035 17.6901 14.1697 17.1274 13.5593Z" fill="#E62222"/>
</g>
<g clip-path="url(#clip1)">
<path d="M36.1274 13.5593C35.5579 12.9417 34.7766 12.6016 33.9271 12.6016C33.2922 12.6016 32.7107 12.8023 32.1987 13.1982C31.9404 13.398 31.7064 13.6425 31.5 13.9278C31.2937 13.6425 31.0596 13.398 30.8012 13.1982C30.2893 12.8023 29.7078 12.6016 29.0729 12.6016C28.2234 12.6016 27.442 12.9417 26.8726 13.5593C26.3099 14.1697 26 15.0035 26 15.9074C26 16.8377 26.3467 17.6892 27.091 18.5874C27.7569 19.3908 28.7138 20.2064 29.822 21.1507C30.2004 21.4733 30.6294 21.8388 31.0748 22.2282C31.1924 22.3313 31.3434 22.388 31.5 22.388C31.6565 22.388 31.8076 22.3313 31.9251 22.2284C32.3705 21.8389 32.7996 21.4732 33.1782 21.1505C34.2863 20.2063 35.2432 19.3908 35.9091 18.5873C36.6534 17.6892 37 16.8377 37 15.9073C37 15.0035 36.6901 14.1697 36.1274 13.5593Z" fill="#E62222"/>
</g>
<defs>
<clipPath id="clip0">
<rect width="11" height="11" fill="white" transform="translate(7 12)"/>
</clipPath>
<clipPath id="clip1">
<rect width="11" height="11" fill="white" transform="translate(26 12)"/>
</clipPath>
</defs>
</svg>
