<svg width="32" height="32" viewBox="0 0 32 32" fill="none" xmlns="http://www.w3.org/2000/svg">
<path d="M31.5995 18.2413C31.5995 16.8447 30.6785 15.6593 29.412 15.2602V10.3639C29.412 4.64919 24.7628 0 19.0481 0H12.952C7.23732 0 2.58813 4.64919 2.58813 10.3639V15.2602C1.32163 15.6593 0.400635 16.8447 0.400635 18.2413C0.400635 19.6379 1.32163 20.8233 2.58813 21.2224V27.3125C2.58813 29.8972 4.69095 32 7.27563 32H24.7246C27.3093 32 29.4121 29.8972 29.4121 27.3125V21.2225C30.6785 20.8233 31.5995 19.6379 31.5995 18.2413ZM4.46313 10.3639C4.46313 5.68306 8.2712 1.875 12.952 1.875H19.0481C23.7289 1.875 27.537 5.68306 27.537 10.3639V10.7414H4.46313V10.3639ZM27.537 12.6163V15.2319C27.0283 15.3693 26.6783 15.6017 26.3966 15.7886C26.0458 16.0215 25.8525 16.1498 25.3556 16.1498C24.8588 16.1498 24.6656 16.0215 24.3148 15.7886C23.8863 15.5042 23.2994 15.1146 22.2368 15.1146C21.1743 15.1146 20.5874 15.5041 20.1589 15.7886C19.8082 16.0215 19.6149 16.1497 19.1181 16.1497C18.6214 16.1497 18.4281 16.0215 18.0774 15.7886C17.6489 15.5041 17.0621 15.1146 15.9996 15.1146C14.9371 15.1146 14.3503 15.5042 13.9218 15.7886C13.5711 16.0215 13.3779 16.1497 12.8812 16.1497C12.3844 16.1497 12.1912 16.0215 11.8404 15.7886C11.412 15.5041 10.8251 15.1146 9.76264 15.1146C8.70014 15.1146 8.11326 15.5041 7.68482 15.7886C7.33407 16.0215 7.14082 16.1497 6.64407 16.1497C6.14732 16.1497 5.95413 16.0215 5.60338 15.7886C5.32176 15.6016 4.9717 15.3693 4.46307 15.2319V12.6163H27.537V12.6163ZM19.3715 21.3663H27.537V23.8663H17.2357L19.3715 21.3663ZM13.8993 24.8851C13.658 25.1676 13.3204 25.3231 12.9489 25.3231C12.5774 25.3231 12.2398 25.1676 11.9985 24.8851L8.99238 21.3664H16.9054L13.8993 24.8851ZM8.66214 23.8663H4.46313V21.3663H6.52632L8.66214 23.8663ZM27.537 27.3125C27.537 28.8633 26.2753 30.125 24.7245 30.125H7.27563C5.72482 30.125 4.46313 28.8633 4.46313 27.3125V25.7413H10.264L10.5729 26.1029C11.1675 26.7989 12.0336 27.1981 12.9489 27.1981C13.8643 27.1981 14.7304 26.7989 15.3249 26.1029L15.6339 25.7413H27.5371V27.3125H27.537ZM28.4745 19.4913H3.52563C2.83638 19.4913 2.27563 18.9306 2.27563 18.2413C2.27563 17.5521 2.83638 16.9913 3.52563 16.9913H3.61982C4.04838 17.007 4.2387 17.1332 4.56632 17.3507C4.99476 17.6351 5.58163 18.0247 6.64413 18.0247C7.70663 18.0247 8.29351 17.6352 8.72195 17.3507C9.0727 17.1178 9.26595 16.9896 9.7627 16.9896C10.2594 16.9896 10.4527 17.1178 10.8034 17.3507C11.2319 17.6352 11.8188 18.0247 12.8813 18.0247C13.9438 18.0247 14.5306 17.6351 14.959 17.3507C15.3098 17.1178 15.5029 16.9896 15.9996 16.9896C16.4964 16.9896 16.6896 17.1178 17.0404 17.3507C17.4688 17.6352 18.0557 18.0247 19.1182 18.0247C20.1807 18.0247 20.7676 17.6352 21.1961 17.3507C21.5468 17.1178 21.7401 16.9896 22.2369 16.9896C22.7338 16.9896 22.927 17.1179 23.2778 17.3507C23.7063 17.6352 24.2931 18.0248 25.3557 18.0248C26.4183 18.0248 27.0051 17.6353 27.4336 17.3507C27.7614 17.1332 27.9517 17.007 28.3804 16.9913H28.4746C29.1638 16.9913 29.7246 17.5521 29.7246 18.2413C29.7246 18.9306 29.1638 19.4913 28.4745 19.4913Z" fill="#858EA1"/>
</svg>
