<svg width="223" height="261" viewBox="0 0 223 261" fill="none" xmlns="http://www.w3.org/2000/svg">
<g clip-path="url(#clip0)">
<path d="M170.436 177.846L213.443 192.965V257.817L172.427 242.3L170.436 177.846Z" fill="#FFDA80"/>
<path d="M53.0538 31.0954C56.3949 27.6179 60.3555 24.7391 64.7294 22.7047C99.294 6.62728 117.832 6.30812 156.067 20.4376C165.159 23.7982 172.615 30.474 177.515 38.8326C189.575 59.4031 196.978 71.6081 196.747 93.9266C196.737 94.7891 196.029 95.4878 195.166 95.4878H24.768C23.8582 95.4878 23.1333 94.712 23.1851 93.8048C24.8838 64.0616 32.7979 52.1784 53.0538 31.0954Z" fill="#FFDA80"/>
<path d="M172.501 242.595L214.136 258.937" stroke="black" stroke-width="4" stroke-linecap="round" stroke-linejoin="round"/>
<path d="M8.59282 61.5518C10.7036 66.7986 16.4497 71.0983 16.4497 71.0983C16.4497 71.0983 16.596 65.3071 17.9052 61.1307C19.2145 56.9542 20.7848 53.2764 23.1151 49.8364C25.4453 46.3963 28.1786 44.3332 31.0079 40.6324C33.8372 36.9317 36.5704 34.8685 38.1178 29.9327C39.6651 24.9969 39.4773 21.6027 38.0304 18.2315C36.5835 14.8602 30.6726 8.42426 30.6726 8.42426C30.6726 8.42426 33.2595 12.1523 31.9502 16.3287C30.6409 20.5051 25.1974 25.8894 25.1974 25.8894L16.5675 36.1134C16.5675 36.1134 9.17374 45.0566 7.62639 49.9924C6.07906 54.9282 6.48201 56.3051 8.59282 61.5518Z" stroke="black" stroke-width="4" stroke-linecap="round" stroke-linejoin="round"/>
<path d="M22.3 97.4771H196.718" stroke="black" stroke-width="4" stroke-linecap="round"/>
<path d="M39.8214 79.1753C40.2844 73.9459 40.7909 71.1768 42.6089 66.8415" stroke="black" stroke-width="4" stroke-linecap="round" stroke-linejoin="round"/>
<path d="M52.5643 49.717C66.5415 33.4168 76.2076 27.3966 97.1412 22.9539" stroke="black" stroke-width="4" stroke-linecap="round"/>
<path d="M20.7085 97.014C20.6722 97.8917 21.3554 98.6333 22.2343 98.6691C23.1133 98.7057 23.8552 98.023 23.8915 97.1445L20.7085 97.014ZM23.8915 97.1445C25.1119 67.602 36.7245 46.0604 53.2854 32.012C69.874 17.9402 91.5288 11.3031 112.931 11.7947C134.337 12.2864 155.386 19.906 170.767 34.2112C186.117 48.4876 195.91 69.5011 194.728 97.0108L197.911 97.1477C199.132 68.7382 188.993 46.8133 172.937 31.8815C156.914 16.9784 135.085 9.11979 113.005 8.6126C90.9203 8.1054 68.4786 14.9486 51.2236 29.5856C33.9411 44.2461 21.9632 66.6416 20.7085 97.014L23.8915 97.1445Z" fill="black"/>
<path d="M194.727 102.649H25.8839C23.4647 102.649 21.5035 104.609 21.5035 107.026C21.5035 109.443 23.4647 111.402 25.8839 111.402H194.727C197.146 111.402 199.107 109.443 199.107 107.026C199.107 104.609 197.146 102.649 194.727 102.649Z" fill="#FFDA80" stroke="black" stroke-width="4"/>
<path d="M150.013 165.708L132.285 190.742C131.269 192.177 131.61 194.164 133.046 195.179C134.482 196.194 136.47 195.854 137.487 194.419L155.214 169.385C156.23 167.95 155.889 165.964 154.453 164.948C153.017 163.933 151.029 164.273 150.013 165.708Z" fill="#FFDA80" stroke="black" stroke-width="4"/>
<path d="M155.327 170.513L171.255 180.062" stroke="black" stroke-width="4"/>
<path d="M138.452 193.51L171.105 208.629" stroke="black" stroke-width="4"/>
<path d="M171.25 177.429L172.009 241.884" stroke="black" stroke-width="4" stroke-linecap="round"/>
<path d="M152.118 199.729V230.762" stroke="black" stroke-width="4"/>
<path d="M150.977 229.236L172.481 235.602" stroke="black" stroke-width="4"/>
<path d="M170.897 177.32L214.111 193.698" stroke="black" stroke-width="4" stroke-linecap="round" stroke-linejoin="round"/>
<path d="M214.755 195.756L220.616 198.417" stroke="black" stroke-width="4" stroke-linecap="round" stroke-linejoin="round"/>
<path d="M215.58 228.459L220.695 231.014" stroke="black" stroke-width="4" stroke-linecap="round" stroke-linejoin="round"/>
<path d="M214.239 194.159V257.817" stroke="black" stroke-width="4" stroke-linecap="round" stroke-linejoin="round"/>
<path d="M148.543 166.22C140.1 152.244 142.094 141.627 159.693 116.885" stroke="black" stroke-width="4" stroke-linecap="round" stroke-linejoin="round"/>
<path d="M66.8988 118.036C125.589 187.169 128.996 109.972 158.697 116.626" stroke="black" stroke-width="4" stroke-linecap="round"/>
<path d="M67.5575 118.463C68.0955 114.039 82.8628 115.046 93.081 141.779" stroke="black" stroke-width="4" stroke-linecap="round" stroke-linejoin="round"/>
<path d="M47.3875 118.166C85.2178 144.425 74.0678 170.287 132.454 189.773" stroke="black" stroke-width="4" stroke-linecap="round" stroke-linejoin="round"/>
<path d="M47.8416 117.826C54.1172 114.025 58.9667 113.975 67.6964 118.564" stroke="black" stroke-width="4" stroke-linecap="round" stroke-linejoin="round"/>
<path d="M97.1826 10.245C96.3862 -1.29307 121.474 -1.29307 121.075 10.245" stroke="black" stroke-width="4"/>
</g>
<defs>
<clipPath id="clip0">
<rect width="223" height="261" fill="white"/>
</clipPath>
</defs>
</svg>
