<svg width="327" height="535" viewBox="0 0 327 535" fill="none" xmlns="http://www.w3.org/2000/svg">
<g filter="url(#filter0_d)">
<g clip-path="url(#clip0)">
<path d="M36.6212 502.999V514.024C36.6212 517.877 39.7445 521 43.5973 521H57.8471C61.6995 521 64.8232 517.877 64.8232 514.024V502.999H36.6212Z" fill="#3B484A"/>
<path d="M47.2448 514.024V502.999H36.6212V514.024C36.6212 517.876 39.7445 521 43.5973 521H54.2209C50.3681 521 47.2448 517.877 47.2448 514.024Z" fill="#333E40"/>
<path d="M187.379 502.999V514.024C187.379 517.877 184.256 521 180.403 521H166.153C162.301 521 159.177 517.877 159.177 514.024V502.999H187.379Z" fill="#3B484A"/>
<path d="M169.801 514.024V502.999H159.177V514.024C159.177 517.876 162.301 521 166.153 521H176.777C172.924 521 169.801 517.877 169.801 514.024Z" fill="#333E40"/>
<path d="M172.731 345H51.2691C43.1793 345 36.6212 351.558 36.6212 359.648V404.292H187.379V359.648C187.379 351.558 180.821 345 172.731 345Z" fill="#FDCC55"/>
<path d="M65.434 345H51.2691C43.1793 345 36.6212 351.558 36.6212 359.648V404.292H50.7861V359.648C50.7861 351.558 57.3442 345 65.434 345Z" fill="#45B6D9"/>
<path d="M90.4809 378.332H54.0726C49.8548 378.332 46.4348 381.751 46.4348 385.97V397.362H98.1183V385.97C98.1183 381.751 94.6987 378.332 90.4809 378.332Z" fill="#3B484A"/>
<path d="M64.6962 378.332H54.0726C49.8548 378.332 46.4348 381.751 46.4348 385.97V397.362H57.0584V385.97C57.0588 381.751 60.478 378.332 64.6962 378.332Z" fill="#333E40"/>
<path d="M133.519 378.332H169.927C174.145 378.332 177.565 381.751 177.565 385.97V397.362H125.882V385.97C125.882 381.751 129.301 378.332 133.519 378.332Z" fill="#3B484A"/>
<path d="M144.143 378.332H133.519C129.301 378.332 125.881 381.751 125.881 385.97V397.362H136.505V385.97C136.506 381.751 139.925 378.332 144.143 378.332Z" fill="#333E40"/>
<path d="M187.379 389.641H36.6212C31.1174 389.641 26.6559 394.103 26.6559 399.607V498.847C26.6559 504.351 31.1174 508.812 36.6212 508.812H187.379C192.883 508.812 197.345 504.351 197.345 498.847V399.607C197.345 394.103 192.883 389.641 187.379 389.641Z" fill="#FED573"/>
<path d="M47.9031 498.847V399.607C47.9031 394.103 52.3646 389.641 57.8684 389.641H36.6212C31.1174 389.641 26.6559 394.103 26.6559 399.607V498.847C26.6559 504.351 31.1174 508.812 36.6212 508.812H57.8687C52.3646 508.812 47.9031 504.351 47.9031 498.847Z" fill="#55C2E3"/>
<path d="M181.228 411.299H42.7722V491.884H181.228V411.299Z" fill="#3B484A"/>
<path d="M47.903 411.299H42.7722V491.884H47.903V411.299Z" fill="#333E40"/>
<path d="M80.6827 455.932C79.2159 455.932 78.0269 454.743 78.0269 453.277V447.609C78.0269 446.142 79.2159 444.953 80.6827 444.953C82.1494 444.953 83.3385 446.142 83.3385 447.609V453.277C83.3385 454.743 82.1494 455.932 80.6827 455.932Z" fill="#F3F5E6"/>
<path d="M143.317 455.932C141.851 455.932 140.661 454.743 140.661 453.277V447.609C140.661 446.142 141.851 444.953 143.317 444.953C144.784 444.953 145.973 446.142 145.973 447.609V453.277C145.973 454.743 144.784 455.932 143.317 455.932Z" fill="#F3F5E6"/>
<path d="M112 458.958C108.221 458.958 104.675 457.381 102.27 454.63C101.305 453.525 101.418 451.848 102.522 450.882C103.627 449.917 105.304 450.03 106.27 451.134C107.665 452.73 109.754 453.646 112 453.646C114.246 453.646 116.334 452.73 117.73 451.134C118.694 450.03 120.373 449.917 121.477 450.882C122.582 451.848 122.694 453.525 121.728 454.63C119.325 457.381 115.779 458.958 112 458.958Z" fill="#F3F5E6"/>
<path d="M112 370.091C115.945 370.091 119.143 366.893 119.143 362.948C119.143 359.003 115.945 355.806 112 355.806C108.055 355.806 104.857 359.003 104.857 362.948C104.857 366.893 108.055 370.091 112 370.091Z" fill="#DE646E"/>
<path d="M72.2779 370.091C76.2228 370.091 79.4207 366.893 79.4207 362.948C79.4207 359.003 76.2228 355.806 72.2779 355.806C68.3331 355.806 65.1351 359.003 65.1351 362.948C65.1351 366.893 68.3331 370.091 72.2779 370.091Z" fill="#DE646E"/>
<path d="M151.722 370.091C155.667 370.091 158.865 366.893 158.865 362.948C158.865 359.003 155.667 355.806 151.722 355.806C147.777 355.806 144.579 359.003 144.579 362.948C144.579 366.893 147.777 370.091 151.722 370.091Z" fill="#DE646E"/>
<path d="M181.228 404.704H42.7722C39.1309 404.704 36.1791 407.656 36.1791 411.297C36.1791 414.938 39.1312 417.891 42.7722 417.891H181.228C184.869 417.891 187.821 414.938 187.821 411.297C187.821 407.656 184.869 404.704 181.228 404.704Z" fill="#FA7578"/>
<path d="M41.2463 411.297C41.2463 407.656 44.1984 404.704 47.8394 404.704H42.7722C39.1309 404.704 36.1791 407.656 36.1791 411.297C36.1791 414.938 39.1312 417.891 42.7722 417.891H47.8394C44.1977 417.891 41.2463 414.939 41.2463 411.297Z" fill="#F9545B"/>
</g>
<g clip-path="url(#clip1)">
<path d="M86.9557 133.521C86.8444 133.177 86.5391 132.932 86.1779 132.9L81.2712 132.454L79.331 127.913C79.1879 127.58 78.8621 127.365 78.5001 127.365C78.1381 127.365 77.8123 127.58 77.6692 127.914L75.729 132.454L70.8215 132.9C70.461 132.933 70.1564 133.177 70.0445 133.521C69.9326 133.865 70.0359 134.243 70.3087 134.481L74.0175 137.734L72.9239 142.551C72.8439 142.905 72.9814 143.272 73.2753 143.484C73.4332 143.598 73.6181 143.656 73.8044 143.656C73.9651 143.656 74.1246 143.613 74.2676 143.527L78.5001 140.998L82.731 143.527C83.0406 143.714 83.4309 143.697 83.7241 143.484C84.0182 143.271 84.1555 142.905 84.0755 142.551L82.9818 137.734L86.6907 134.482C86.9635 134.243 87.0676 133.866 86.9557 133.521V133.521Z" fill="#FFDA80"/>
</g>
<g clip-path="url(#clip2)">
<path d="M321.307 203.073C321.162 202.742 320.833 202.53 320.47 202.534L315.544 202.589L313.152 198.269C312.976 197.952 312.63 197.771 312.27 197.808C311.91 197.845 311.607 198.092 311.499 198.439L310.03 203.153L305.193 204.095C304.838 204.165 304.56 204.438 304.484 204.792C304.407 205.146 304.548 205.511 304.844 205.72L308.864 208.579L308.266 213.482C308.222 213.843 308.396 214.193 308.71 214.375C308.879 214.472 309.069 214.511 309.254 214.492C309.414 214.476 309.568 214.417 309.702 214.317L313.655 211.37L318.121 213.457C318.448 213.611 318.835 213.554 319.105 213.313C319.376 213.071 319.475 212.692 319.36 212.349L317.782 207.668L321.141 204.055C321.388 203.79 321.454 203.405 321.307 203.073V203.073Z" fill="#FFDA80"/>
</g>
<g clip-path="url(#clip3)">
<path d="M111.25 26.055C111.181 25.8991 111.027 25.7993 110.856 25.8013L108.538 25.8274L107.412 23.7942C107.329 23.6453 107.166 23.56 106.997 23.5773C106.827 23.5946 106.685 23.7111 106.634 23.8741L105.943 26.0925L103.667 26.5358C103.5 26.5687 103.369 26.6974 103.333 26.8639C103.297 27.0304 103.363 27.2022 103.502 27.3006L105.394 28.6459L105.113 30.9536C105.092 31.1232 105.174 31.2881 105.322 31.3735C105.401 31.4193 105.491 31.4377 105.578 31.4288C105.653 31.4211 105.726 31.3932 105.788 31.3463L107.649 29.9596L109.751 30.9414C109.904 31.0138 110.086 30.9872 110.213 30.8737C110.341 30.7598 110.388 30.5818 110.333 30.4201L109.591 28.2171L111.172 26.5173C111.288 26.3925 111.319 26.2111 111.25 26.055V26.055Z" fill="#FFDA80"/>
</g>
<g clip-path="url(#clip4)">
<path d="M292.327 155.319C292.258 155.163 292.103 155.063 291.933 155.065L289.614 155.091L288.489 153.058C288.406 152.909 288.243 152.824 288.074 152.841C287.904 152.859 287.762 152.975 287.711 153.138L287.02 155.357L284.744 155.8C284.577 155.833 284.446 155.961 284.41 156.128C284.374 156.294 284.44 156.466 284.579 156.565L286.471 157.91L286.19 160.218C286.169 160.387 286.251 160.552 286.399 160.637C286.478 160.683 286.567 160.702 286.655 160.693C286.73 160.685 286.802 160.657 286.865 160.61L288.726 159.224L290.827 160.205C290.981 160.278 291.163 160.251 291.29 160.138C291.418 160.024 291.465 159.846 291.41 159.684L290.668 157.481L292.249 155.781C292.365 155.657 292.396 155.475 292.327 155.319V155.319Z" fill="#FFDA80"/>
</g>
<g clip-path="url(#clip5)">
<path d="M107.987 213.918C107.954 213.817 107.864 213.745 107.758 213.735L106.315 213.604L105.744 212.268C105.702 212.171 105.606 212.107 105.5 212.107C105.394 212.107 105.298 212.171 105.256 212.269L104.685 213.604L103.242 213.735C103.136 213.745 103.046 213.817 103.013 213.918C102.98 214.019 103.011 214.13 103.091 214.2L104.182 215.157L103.86 216.574C103.836 216.678 103.877 216.786 103.963 216.848C104.01 216.882 104.064 216.899 104.119 216.899C104.166 216.899 104.213 216.886 104.255 216.861L105.5 216.117L106.744 216.861C106.835 216.916 106.95 216.911 107.037 216.848C107.123 216.786 107.163 216.678 107.14 216.574L106.818 215.157L107.909 214.2C107.989 214.13 108.02 214.019 107.987 213.918V213.918Z" fill="#FFDA80"/>
</g>
</g>
<path d="M72.0617 107H156.632C156.632 107 233.695 478.852 224.187 510.937C214.68 543.021 8.00874 543.021 0.502533 510.937C-7.00367 478.852 72.0617 107 72.0617 107Z" fill="url(#paint0_linear)"/>
<path d="M196.077 111.817H27.923L11.8164 82.6924L60.1363 53.5772H163.864L212.184 82.6972L196.077 111.817Z" fill="#73C3F9"/>
<path d="M163.864 53.5772V52.2897C163.865 45.4782 162.524 38.7332 159.918 32.4399C157.312 26.1466 153.492 20.4282 148.676 15.6113C143.86 10.7945 138.142 6.97353 131.849 4.36663C125.556 1.75973 118.812 0.417969 112 0.417969C98.245 0.417969 85.0532 5.88217 75.3269 15.6085C65.6005 25.3348 60.1364 38.5266 60.1364 52.2817V53.5692L163.864 53.5772Z" fill="#FCF9F0"/>
<path d="M144.564 40.3015C144.024 40.3016 143.495 40.1463 143.041 39.8541C142.587 39.5619 142.226 39.1451 142.002 38.6535C139.373 32.9005 135.149 28.0222 129.831 24.5969C124.514 21.1716 118.325 19.3431 112 19.3281C111.253 19.3281 110.537 19.0314 110.008 18.5032C109.48 17.975 109.184 17.2587 109.184 16.5117C109.184 15.7648 109.48 15.0484 110.008 14.5202C110.537 13.992 111.253 13.6953 112 13.6953C119.405 13.7116 126.65 15.8513 132.875 19.8605C139.101 23.8697 144.046 29.5803 147.125 36.3151C147.32 36.7441 147.404 37.2151 147.37 37.6852C147.336 38.1552 147.185 38.6092 146.93 39.0057C146.675 39.4022 146.325 39.7286 145.912 39.9549C145.499 40.1813 145.035 40.3004 144.564 40.3015V40.3015Z" fill="#EFE1CB"/>
<path d="M112 95.5675C119.111 95.5675 124.875 89.8031 124.875 82.6924C124.875 75.5818 119.111 69.8174 112 69.8174C104.889 69.8174 99.125 75.5818 99.125 82.6924C99.125 89.8031 104.889 95.5675 112 95.5675Z" fill="#FFC839"/>
<path d="M153.763 91.5392C158.649 91.5392 162.61 87.5784 162.61 82.6924C162.61 77.8065 158.649 73.8457 153.763 73.8457C148.877 73.8457 144.917 77.8065 144.917 82.6924C144.917 87.5784 148.877 91.5392 153.763 91.5392Z" fill="#FFC839"/>
<path d="M70.2367 91.5392C75.1227 91.5392 79.0835 87.5784 79.0835 82.6924C79.0835 77.8065 75.1227 73.8457 70.2367 73.8457C65.3508 73.8457 61.39 77.8065 61.39 82.6924C61.39 87.5784 65.3508 91.5392 70.2367 91.5392Z" fill="#FFC839"/>
<path d="M161.173 131.582H62.8255L46.7189 111.817H177.279L161.173 131.582Z" fill="#2D3C6B"/>
<defs>
<filter id="filter0_d" x="20" y="23" width="306.416" height="506" filterUnits="userSpaceOnUse" color-interpolation-filters="sRGB">
<feFlood flood-opacity="0" result="BackgroundImageFix"/>
<feColorMatrix in="SourceAlpha" type="matrix" values="0 0 0 0 0 0 0 0 0 0 0 0 0 0 0 0 0 0 127 0"/>
<feOffset dy="4"/>
<feGaussianBlur stdDeviation="2"/>
<feColorMatrix type="matrix" values="0 0 0 0 0 0 0 0 0 0 0 0 0 0 0 0 0 0 0.25 0"/>
<feBlend mode="normal" in2="BackgroundImageFix" result="effect1_dropShadow"/>
<feBlend mode="normal" in="SourceGraphic" in2="effect1_dropShadow" result="shape"/>
</filter>
<linearGradient id="paint0_linear" x1="112.345" y1="107" x2="112.345" y2="531.292" gradientUnits="userSpaceOnUse">
<stop stop-color="#FFDA80"/>
<stop offset="0.911458" stop-color="#FFDA80" stop-opacity="0"/>
</linearGradient>
<clipPath id="clip0">
<rect width="176" height="176" fill="white" transform="translate(24 345)"/>
</clipPath>
<clipPath id="clip1">
<rect width="17" height="17" fill="white" transform="translate(70 127)"/>
</clipPath>
<clipPath id="clip2">
<rect width="17" height="17" fill="white" transform="translate(303.776 198.309) rotate(-5.83389)"/>
</clipPath>
<clipPath id="clip3">
<rect width="8" height="8" fill="white" transform="translate(103 23.8131) rotate(-5.83389)"/>
</clipPath>
<clipPath id="clip4">
<rect width="8" height="8" fill="white" transform="translate(284.077 153.077) rotate(-5.83389)"/>
</clipPath>
<clipPath id="clip5">
<rect width="5" height="5" fill="white" transform="translate(103 212)"/>
</clipPath>
</defs>
</svg>
