<svg width="310" height="310" viewBox="0 0 310 310" fill="none" xmlns="http://www.w3.org/2000/svg">
<path d="M141.729 28.1259C79.1596 28.1259 28.4292 78.7418 28.4292 141.18C28.4292 203.611 79.1596 254.227 141.729 254.227V141.18H255.029C255.029 78.7412 204.306 28.1259 141.729 28.1259Z" fill="#F2D59C"/>
<path d="M141.729 28.1259C138.583 28.1259 135.469 28.2597 132.388 28.5109C190.593 33.2518 236.346 81.8812 236.346 141.18H255.029C255.029 78.7412 204.306 28.1259 141.729 28.1259Z" fill="#ECC372"/>
<path d="M276.431 141.18H255.029C255.029 78.7418 204.305 28.1258 141.729 28.1258C79.1588 28.1258 28.4284 78.7412 28.4284 141.18C28.4284 203.611 79.1588 254.227 141.729 254.227V275.552C141.729 279.328 138.588 282.368 134.824 282.187C59.8916 278.594 0.237793 216.834 0.237793 141.18C0.237793 63.2079 63.5892 0 141.729 0C217.549 0 279.436 59.5024 283.052 134.26C283.235 138.032 280.2 141.18 276.431 141.18Z" fill="#C6855B"/>
<path d="M276.431 141.18H255.029C255.029 78.7418 204.305 28.1258 141.729 28.1258C79.1588 28.1258 28.4284 78.7412 28.4284 141.18C28.4284 203.611 79.1588 254.227 141.729 254.227V275.552C141.729 279.328 138.588 282.368 134.824 282.187C59.8916 278.594 0.237793 216.834 0.237793 141.18C0.237793 63.2079 63.5892 0 141.729 0C217.549 0 279.436 59.5024 283.052 134.26C283.235 138.032 280.2 141.18 276.431 141.18Z" fill="#C6855B"/>
<path d="M276.431 141.18H255.029C255.029 78.7418 204.305 28.1258 141.729 28.1258C79.1588 28.1258 28.4284 78.7412 28.4284 141.18C28.4284 203.611 79.1588 254.227 141.729 254.227V275.552C141.729 279.328 138.588 282.368 134.824 282.187C59.8916 278.594 0.237793 216.834 0.237793 141.18C0.237793 63.2079 63.5892 0 141.729 0C217.549 0 279.436 59.5024 283.052 134.26C283.235 138.032 280.2 141.18 276.431 141.18Z" fill="#C6855B"/>
<path d="M141.729 0C138.594 0 135.485 0.112617 132.399 0.313633C203.895 4.97029 260.904 62.6024 264.369 134.26C264.552 138.032 261.517 141.18 257.747 141.18H276.431C280.2 141.18 283.235 138.032 283.053 134.26C279.437 59.5024 217.55 0 141.729 0Z" fill="#C17E4E"/>
<path d="M146.401 28.2288C144.851 28.1664 143.295 28.1259 141.73 28.1259C140.165 28.1259 138.609 28.1664 137.059 28.2288V141.18H141.73H146.401V28.2288Z" fill="#ECC372"/>
<path d="M146.4 0.0847656C144.849 0.0345117 143.293 0 141.729 0C140.165 0 138.61 0.0345117 137.058 0.0847656V28.2288C138.608 28.1658 140.164 28.1252 141.729 28.1252C143.294 28.1252 144.85 28.1658 146.4 28.2282V0.0847656H146.4Z" fill="#C17E4E"/>
<path d="M215.124 122.58C220.978 122.58 225.724 117.824 225.724 111.958C225.724 106.093 220.978 101.337 215.124 101.337C209.269 101.337 204.523 106.093 204.523 111.958C204.523 117.824 209.269 122.58 215.124 122.58Z" fill="#E17F85"/>
<path d="M109.544 121.199C115.398 121.199 120.144 116.444 120.144 110.578C120.144 104.712 115.398 99.9568 109.544 99.9568C103.689 99.9568 98.9434 104.712 98.9434 110.578C98.9434 116.444 103.689 121.199 109.544 121.199Z" fill="#E17F85"/>
<path d="M104.37 181.675C110.224 181.675 114.97 176.919 114.97 171.053C114.97 165.188 110.224 160.432 104.37 160.432C98.5151 160.432 93.769 165.188 93.769 171.053C93.769 176.919 98.5151 181.675 104.37 181.675Z" fill="#E17F85"/>
<path d="M113.965 225.709C119.82 225.709 124.566 220.954 124.566 215.088C124.566 209.222 119.82 204.467 113.965 204.467C108.111 204.467 103.365 209.222 103.365 215.088C103.365 220.954 108.111 225.709 113.965 225.709Z" fill="#E17F85"/>
<path d="M51.5843 73.7352C51.3148 73.7352 51.0472 73.7443 50.7802 73.7552C44.5269 82.1397 39.4155 91.4204 35.6641 101.366C38.8434 106.871 44.78 110.578 51.5849 110.578C61.7392 110.578 69.9705 102.33 69.9705 92.1566C69.9699 81.9829 61.7386 73.7352 51.5843 73.7352Z" fill="#E17F85"/>
<path d="M51.584 73.7352C51.3145 73.7352 51.0469 73.7443 50.7799 73.7558C49.7228 75.1732 48.711 76.6251 47.7205 78.0928C51.7051 81.4719 54.2378 86.5167 54.2378 92.1566C54.2378 99.5058 49.9413 105.848 43.728 108.805C46.1112 109.937 48.771 110.579 51.584 110.579C61.7383 110.579 69.9696 102.331 69.9696 92.1572C69.9696 81.9829 61.7383 73.7352 51.584 73.7352Z" fill="#DE646E"/>
<path d="M109.544 75.6926C115.398 75.6926 120.144 70.9374 120.144 65.0715C120.144 59.2056 115.398 54.4504 109.544 54.4504C103.689 54.4504 98.9434 59.2056 98.9434 65.0715C98.9434 70.9374 103.689 75.6926 109.544 75.6926Z" fill="#E17F85"/>
<path d="M170.172 121.199C176.027 121.199 180.773 116.444 180.773 110.578C180.773 104.712 176.027 99.9568 170.172 99.9568C164.318 99.9568 159.572 104.712 159.572 110.578C159.572 116.444 164.318 121.199 170.172 121.199Z" fill="#E17F85"/>
<path d="M192.5 67.6635C201.903 67.6635 209.541 60.1157 209.72 50.7382C201.631 44.6739 192.703 39.6642 183.138 35.9152C178.406 38.9915 175.272 44.3288 175.272 50.4022C175.272 59.9353 182.985 67.6635 192.5 67.6635Z" fill="#E17F85"/>
<path d="M204.59 62.6963C207.684 59.6387 209.63 55.4168 209.72 50.7389C209.719 50.7383 209.719 50.7377 209.718 50.7377C205.561 47.625 201.198 44.8005 196.655 42.2842C192.294 39.8689 187.781 37.7389 183.138 35.9164C180.784 37.4471 178.826 39.5378 177.452 41.999C187.528 47.5124 196.673 54.5092 204.59 62.6963Z" fill="#DE646E"/>
<path d="M52.8168 176.727C46.4751 176.727 40.7595 179.396 36.7144 183.669C42.2405 197.251 50.3344 209.517 60.3979 219.87C68.9223 216.766 75.0115 208.578 75.0115 198.964C75.0115 186.684 65.0745 176.727 52.8168 176.727Z" fill="#E17F85"/>
<path d="M52.8168 176.727C49.5793 176.727 46.5072 177.426 43.7354 178.676C51.463 182.154 56.848 189.927 56.848 198.965C56.848 203.602 55.4282 207.905 53.0045 211.468C55.3319 214.389 57.798 217.195 60.3985 219.87C68.9229 216.766 75.0121 208.579 75.0121 198.965C75.0114 186.684 65.0745 176.727 52.8168 176.727Z" fill="#DE646E"/>
<path d="M28.5332 136.508C28.4703 138.058 28.4297 139.614 28.4297 141.179C28.4297 142.744 28.4703 144.3 28.5338 145.85H141.73V141.179V136.508H28.5332Z" fill="#ECC372"/>
<path d="M0.323897 145.85H28.5333C28.4703 144.3 28.4291 142.745 28.4291 141.18C28.4291 139.614 28.4697 138.058 28.5333 136.509H0.323897C0.273037 138.06 0.238525 139.616 0.238525 141.18C0.238525 142.743 0.273037 144.299 0.323897 145.85Z" fill="#C17E4E"/>
</svg>
