<svg width="28" height="28" viewBox="0 0 28 28" fill="none" xmlns="http://www.w3.org/2000/svg">
<path d="M3.5 8.75H24.5C26.4329 8.75 28 7.18287 28 5.25C28 3.31713 26.4329 1.75 24.5 1.75H3.5C1.56713 1.75 0 3.31713 0 5.25C0 7.18287 1.56713 8.75 3.5 8.75ZM24.5 10.5H3.5C1.56713 10.5 0 12.0671 0 14C0 15.9329 1.56713 17.5 3.5 17.5H24.5C26.4329 17.5 28 15.9329 28 14C28 12.0671 26.4329 10.5 24.5 10.5ZM24.5 19.25H3.5C1.56713 19.25 0 20.8171 0 22.75C0 24.6829 1.56713 26.25 3.5 26.25H24.5C26.4329 26.25 28 24.6829 28 22.75C28 20.8171 26.4329 19.25 24.5 19.25Z" fill="black"/>
</svg>
